<svg id="Capa_1" data-name="Capa 1" xmlns="http://www.w3.org/2000/svg" viewBox="0 0 612 368.5"><defs><style>.cls-1{fill:#494747;}.cls-2{fill:#006cb7;}</style></defs><title>logo-gepro</title><path class="cls-1" d="M312.58,201.76c0,3.6-1.35,5.4-4,5.4H267.34c-1.71,0-3.36-.09-4.95-.24q-12.66-1.12-18.15-7.66a12.19,12.19,0,0,1-3.07-8.2V159.72q0-8.35,9.24-12.55A39.22,39.22,0,0,1,267,143.94h41.2c2.69,0,4,1.8,4,5.4,0,2.73-1.36,4.1-4.06,4.1H267.4c-1.22,0-2.36,0-3.43.1q-11,1.25-11,6.46v10.56h55.18a3.82,3.82,0,0,1,2.49.85c1.47.59,2.21,2,2.21,4.1a5.47,5.47,0,0,1-1.09,3.43,3.91,3.91,0,0,1-3.23,1.61H253V191q0,3.33,3.65,5a20.78,20.78,0,0,0,4.89,1.31,43,43,0,0,0,6.27.39h40.75q4.05,0,4.05,4.1Z"/><path class="cls-2" d="M398.57,168q0,9.44-9.45,13.7c-4.59,2-10.49,3-17.65,3h-40v18.5q0,3.13-2.43,3.85a25.49,25.49,0,0,1-5,.26c-2.7,0-4-1.36-4-4.1V148.22c0-2.7,1.34-4.05,4.05-4.05h48a47.43,47.43,0,0,1,16.5,2.7q10.07,3.78,10.06,11.34V168Zm-11.41-.33v-8.6q0-5.51-15.06-5.49H331.45v21.75h40.71q15,0,15-7.66Z"/><path class="cls-1" d="M204.1,174.09a5.33,5.33,0,0,1,5.32-5.33H230a5.33,5.33,0,0,1,5.33,5.33,5.22,5.22,0,0,1-.12,1.13v16.06q0,8.63-8.55,12.82-6.6,3.28-16.19,3.27H184.28q-10.34,0-17.28-3-9.65-4-9.65-12.92V159.84c0-5.61,3.31-9.81,10-12.61a41.87,41.87,0,0,1,14.41-3,8.6,8.6,0,0,1,1.85-.2h25.06c3.57,0,6.49,2.13,6.49,4.76s-2.92,4.75-6.49,4.75H195.53a6.49,6.49,0,0,1-.77.05l-1.32-.05h-9.86a7.15,7.15,0,0,1-.93,0c-9.21.52-13.81,2.61-13.81,6.32v31.64q0,6.44,15.58,6.43h26a24.6,24.6,0,0,0,7.8-1.39c3.63-1.21,5.45-2.81,5.45-4.78v-12.3H209.42a5.32,5.32,0,0,1-5.32-5.32Z"/><path class="cls-1" d="M130.41,215.26c-5.67.55-9.55,5-8.66,9.91s6.26,8.24,12,7.38,9.62-5.3,8.66-9.92S136.07,214.71,130.41,215.26Z"/><path class="cls-2" d="M106.81,169.31c13.44,2.32,22.39-5.3,20-17s-15.13-23.76-28.39-26.87-22.21,4.5-20,17S93.36,167,106.81,169.31Z"/><path class="cls-1" d="M71.26,193.45c10.36,1.26,17.51-5.93,15.95-16s-11.12-19.84-21.35-21.7-17.37,5.33-16,16.05S60.88,192.18,71.26,193.45Z"/><path class="cls-1" d="M140.48,196.72c-4.84.26-8,3.5-7.17,7.25s5.6,6.38,10.5,5.86,8.13-3.77,7.18-7.26S145.33,196.47,140.48,196.72Z"/><path class="cls-1" d="M82.26,214.87c-1-7.58-7.93-14.15-15.42-14.7s-12.79,5.5-11.87,13.5,7.83,14.57,15.42,14.7S83.29,222.44,82.26,214.87Z"/><path class="cls-1" d="M132.42,189.45c-.9-2.92-5.11-5.47-9.37-5.69s-7,2.16-6.17,5.32,5.06,5.71,9.38,5.68S133.34,192.36,132.42,189.45Z"/><path class="cls-2" d="M111.94,201.35c-.62-2.2-3.51-4.4-6.43-4.92s-4.85,1-4.28,3.37,3.45,4.57,6.43,4.9S112.54,203.54,111.94,201.35Z"/><path class="cls-1" d="M98.23,220.34a10.9,10.9,0,0,0-10.46,12.57,12.65,12.65,0,0,0,13.76,10.82c6.72-.66,11.42-6.29,10.46-12.56S104.88,220,98.23,220.34Z"/><path class="cls-2" d="M482.16,168q0,8.46-8.92,12.35a43,43,0,0,1-16.3,2.87H438.18l38,16.15c2,.89,3,2.2,3,3.94,0,2.56-2.23,3.85-6.71,3.85a17.1,17.1,0,0,1-4.2-.41L416.4,184.5V203c0,2.71-1.34,4.05-4,4.05-2.84,0-4.48-.11-4.92-.35A3.45,3.45,0,0,1,405,203V148.63q0-4,4-4h45.82q10.65,0,17.53,2.78,9.78,3.94,9.79,13Zm-11.39.1v-7.89q0-6.25-16-6.26H416.4v20h40.44Q470.78,173.9,470.77,168.05Z"/><path class="cls-2" d="M562.27,190.3q0,16.75-29,16.75H515.58q-11.75,0-18.51-3-10.35-4.22-10.36-13.74V161.54q0-16.9,28.87-16.92h17.73q13.47,0,19,2.37,9.95,3.84,9.95,14.55ZM550.89,190V161.8q0-7.89-17.29-7.9H515.54q-17.44,0-17.44,7.9V190q0,7.64,17.44,7.64h18.11Q550.89,197.68,550.89,190Z"/><path class="cls-1" d="M241.51,216.18h11.35v1.94h-9.37v6.2h9.29v1.94h-9.29V234h9.29V236H241.51Z"/><path class="cls-1" d="M256.65,221.33h2.26l3.89,5.36,3.86-5.36h2.26l-5,6.92,5.62,7.73h-2.3l-4.46-6.15L258.37,236h-2.25l5.55-7.71Z"/><path class="cls-1" d="M288.11,224.38l-1.49.92a6.29,6.29,0,0,0-5.29-2.57,6.14,6.14,0,0,0-4.44,1.72,5.62,5.62,0,0,0-1.77,4.18,6,6,0,0,0,.81,3,5.72,5.72,0,0,0,2.23,2.19,6.76,6.76,0,0,0,8.46-1.79l1.49,1a7,7,0,0,1-2.82,2.45,9,9,0,0,1-4,.88,8,8,0,0,1-5.76-2.21,7.16,7.16,0,0,1-2.29-5.37,7.59,7.59,0,0,1,1.07-3.95,7.46,7.46,0,0,1,2.94-2.85,8.61,8.61,0,0,1,4.19-1,8.77,8.77,0,0,1,2.8.44,7.87,7.87,0,0,1,2.3,1.16A6.16,6.16,0,0,1,288.11,224.38Z"/><path class="cls-1" d="M306.41,231.12,308,232a8.63,8.63,0,0,1-1.8,2.48,7.19,7.19,0,0,1-2.3,1.44,8.24,8.24,0,0,1-2.9.49,7,7,0,0,1-5.61-2.35,8,8,0,0,1-2-5.31,7.83,7.83,0,0,1,1.71-5,7,7,0,0,1,5.81-2.77,7.22,7.22,0,0,1,6,2.83,8,8,0,0,1,1.62,5H295.3a6,6,0,0,0,1.63,4.19,5.19,5.19,0,0,0,3.9,1.63,6.21,6.21,0,0,0,2.17-.39,5.62,5.62,0,0,0,1.8-1A8.72,8.72,0,0,0,306.41,231.12Zm0-4a6.37,6.37,0,0,0-1.1-2.4,5.15,5.15,0,0,0-1.91-1.46,5.8,5.8,0,0,0-2.49-.55,5.35,5.35,0,0,0-3.71,1.39,6.23,6.23,0,0,0-1.71,3Z"/><path class="cls-1" d="M314.05,215.68h1.89V236h-1.89Z"/><path class="cls-1" d="M334.53,231.12l1.59.83a8.47,8.47,0,0,1-1.81,2.48,7.19,7.19,0,0,1-2.3,1.44,8.2,8.2,0,0,1-2.9.49,7,7,0,0,1-5.6-2.35,7.92,7.92,0,0,1-2-5.31,7.83,7.83,0,0,1,1.71-5A7,7,0,0,1,329,221a7.23,7.23,0,0,1,6,2.83,7.89,7.89,0,0,1,1.61,5H323.43a5.92,5.92,0,0,0,1.63,4.19,5.19,5.19,0,0,0,3.89,1.63,6.27,6.27,0,0,0,2.18-.39,5.85,5.85,0,0,0,1.8-1A8.73,8.73,0,0,0,334.53,231.12Zm0-4a6.22,6.22,0,0,0-1.1-2.4,5.11,5.11,0,0,0-1.9-1.46,5.87,5.87,0,0,0-2.5-.55,5.32,5.32,0,0,0-3.7,1.39,6.24,6.24,0,0,0-1.72,3Z"/><path class="cls-1" d="M342.46,221.33h1.89V224a7.87,7.87,0,0,1,2.5-2.26,6.14,6.14,0,0,1,3-.74,5.14,5.14,0,0,1,2.91.83,5,5,0,0,1,1.88,2.25,11.73,11.73,0,0,1,.61,4.4V236h-1.89v-7a17.22,17.22,0,0,0-.21-3.38,3.66,3.66,0,0,0-1.25-2.18,3.81,3.81,0,0,0-2.43-.74,4.66,4.66,0,0,0-3.06,1.13,5.29,5.29,0,0,0-1.78,2.8,19.5,19.5,0,0,0-.27,4V236h-1.89Z"/><path class="cls-1" d="M375.84,224.38l-1.5.92a6.26,6.26,0,0,0-5.28-2.57,6.15,6.15,0,0,0-4.45,1.72,5.61,5.61,0,0,0-1.76,4.18,6,6,0,0,0,.81,3,5.72,5.72,0,0,0,2.23,2.19,6.51,6.51,0,0,0,3.18.78,6.44,6.44,0,0,0,5.27-2.57l1.5,1a7,7,0,0,1-2.82,2.45,9.05,9.05,0,0,1-4,.88,8,8,0,0,1-5.76-2.21,7.2,7.2,0,0,1-2.29-5.37,7.68,7.68,0,0,1,1.07-3.95A7.55,7.55,0,0,1,365,222a8.57,8.57,0,0,1,4.18-1,8.83,8.83,0,0,1,2.81.44,7.69,7.69,0,0,1,2.29,1.16A6.18,6.18,0,0,1,375.84,224.38Z"/><path class="cls-1" d="M382.45,215.3a1.57,1.57,0,0,1,1.56,1.56,1.45,1.45,0,0,1-.46,1.09,1.47,1.47,0,0,1-1.1.46,1.57,1.57,0,0,1-1.54-1.55,1.47,1.47,0,0,1,.46-1.1A1.44,1.44,0,0,1,382.45,215.3Zm-.93,6h1.88V236h-1.88Z"/><path class="cls-1" d="M404.26,221.33V236H402.4v-2.52a8.19,8.19,0,0,1-2.66,2.17,7.25,7.25,0,0,1-3.22.73,7.14,7.14,0,0,1-5.31-2.26,7.55,7.55,0,0,1-2.21-5.48,7.45,7.45,0,0,1,2.23-5.42,7.26,7.26,0,0,1,5.34-2.24,7,7,0,0,1,3.27.76,7.5,7.5,0,0,1,2.56,2.3v-2.69Zm-7.53,1.44a5.66,5.66,0,0,0-5,2.95,6,6,0,0,0-.78,3,5.91,5.91,0,0,0,.79,2.95,5.71,5.71,0,0,0,2.13,2.2,5.52,5.52,0,0,0,2.87.79,5.87,5.87,0,0,0,2.93-.78,5.34,5.34,0,0,0,2.13-2.11,6,6,0,0,0,.75-3,5.86,5.86,0,0,0-1.67-4.25A5.55,5.55,0,0,0,396.73,222.77Z"/><path class="cls-1" d="M428.18,222.93,427,224.19a4.35,4.35,0,0,0-3-1.47,2.25,2.25,0,0,0-1.57.6,1.91,1.91,0,0,0-.65,1.42,2.1,2.1,0,0,0,.54,1.36,7.69,7.69,0,0,0,2.26,1.55,8.18,8.18,0,0,1,2.86,2.1,3.79,3.79,0,0,1,.75,2.3,4.14,4.14,0,0,1-1.27,3,4.32,4.32,0,0,1-3.17,1.26,5.5,5.5,0,0,1-2.42-.56,5.18,5.18,0,0,1-1.91-1.52l1.19-1.34a4.13,4.13,0,0,0,3.06,1.63,2.77,2.77,0,0,0,1.93-.73,2.27,2.27,0,0,0,.8-1.71,2.19,2.19,0,0,0-.53-1.44,8.48,8.48,0,0,0-2.38-1.56,7.55,7.55,0,0,1-2.69-2,3.8,3.8,0,0,1-.72-2.28,3.69,3.69,0,0,1,1.14-2.77,4,4,0,0,1,2.88-1.1A6,6,0,0,1,428.18,222.93Z"/><path class="cls-1" d="M434.52,215.3a1.55,1.55,0,1,1-1.09.46A1.49,1.49,0,0,1,434.52,215.3Zm-.94,6h1.89V236h-1.89Z"/><path class="cls-1" d="M441.73,221.33h1.88V224a7.9,7.9,0,0,1,2.51-2.26,6.1,6.1,0,0,1,3-.74,5.17,5.17,0,0,1,2.92.83A5,5,0,0,1,453.9,224a12,12,0,0,1,.6,4.4V236h-1.88v-7a17.22,17.22,0,0,0-.21-3.38,3.67,3.67,0,0,0-1.26-2.18,3.78,3.78,0,0,0-2.42-.74,4.66,4.66,0,0,0-3.06,1.13,5.31,5.31,0,0,0-1.79,2.8,19.5,19.5,0,0,0-.27,4V236h-1.88Z"/><path class="cls-1" d="M470.58,215.68h1.88V236h-1.88Z"/><path class="cls-1" d="M480.31,214.47h2.9l-4,4.14h-1.86Zm-1.87,6.86h1.89V236h-1.89Z"/><path class="cls-1" d="M486.58,221.33h1.88v2.53a7.38,7.38,0,0,1,2-2,5.69,5.69,0,0,1,3-.86,5,5,0,0,1,2,.41,4.32,4.32,0,0,1,1.56,1.11,5.86,5.86,0,0,1,1.05,2,7,7,0,0,1,2.35-2.62,5.55,5.55,0,0,1,3-.89,4.78,4.78,0,0,1,2.68.76,4.57,4.57,0,0,1,1.72,2.14,11.34,11.34,0,0,1,.57,4.12v8h-1.93v-8a10.64,10.64,0,0,0-.33-3.24,3,3,0,0,0-1.15-1.42,3.42,3.42,0,0,0-1.94-.53,4.21,4.21,0,0,0-2.5.8,4.65,4.65,0,0,0-1.66,2.16,13.57,13.57,0,0,0-.52,4.49V236h-1.89v-7.5a12.83,12.83,0,0,0-.33-3.6,3,3,0,0,0-1.15-1.52,3.3,3.3,0,0,0-1.95-.57,4.23,4.23,0,0,0-2.44.78,4.64,4.64,0,0,0-1.68,2.12,11.28,11.28,0,0,0-.55,4.08V236h-1.88Z"/><path class="cls-1" d="M515.45,215.3a1.45,1.45,0,0,1,1.09.46,1.47,1.47,0,0,1,.46,1.1,1.57,1.57,0,0,1-1.55,1.55,1.47,1.47,0,0,1-1.09-.46,1.49,1.49,0,0,1-.46-1.09,1.51,1.51,0,0,1,.46-1.1A1.47,1.47,0,0,1,515.45,215.3Zm-.94,6h1.89V236h-1.89Z"/><path class="cls-1" d="M524.3,215.89h1.88v5.44h3V223h-3v13H524.3V223h-2.57v-1.63h2.57Z"/><path class="cls-1" d="M546.67,231.12l1.59.83a8.63,8.63,0,0,1-1.8,2.48,7.23,7.23,0,0,1-2.31,1.44,8.18,8.18,0,0,1-2.89.49,7,7,0,0,1-5.61-2.35,7.92,7.92,0,0,1-2-5.31,7.83,7.83,0,0,1,1.71-5,7,7,0,0,1,5.81-2.77,7.22,7.22,0,0,1,6,2.83,8,8,0,0,1,1.62,5H535.57A6,6,0,0,0,537.2,233a5.19,5.19,0,0,0,3.89,1.63,6.22,6.22,0,0,0,2.18-.39,5.62,5.62,0,0,0,1.8-1A8.73,8.73,0,0,0,546.67,231.12Zm0-4a6.21,6.21,0,0,0-1.09-2.4,5.23,5.23,0,0,0-1.91-1.46,5.81,5.81,0,0,0-2.5-.55,5.34,5.34,0,0,0-3.7,1.39,6.16,6.16,0,0,0-1.71,3Z"/><path class="cls-1" d="M562,222.93l-1.21,1.26a4.37,4.37,0,0,0-3-1.47,2.23,2.23,0,0,0-1.57.6,1.88,1.88,0,0,0-.66,1.42,2.1,2.1,0,0,0,.54,1.36,7.77,7.77,0,0,0,2.27,1.55,8.27,8.27,0,0,1,2.86,2.1,3.85,3.85,0,0,1,.74,2.3,4.1,4.1,0,0,1-1.27,3,4.3,4.3,0,0,1-3.16,1.26,5.47,5.47,0,0,1-2.42-.56,5.1,5.1,0,0,1-1.91-1.52l1.18-1.34a4.17,4.17,0,0,0,3.07,1.63,2.81,2.81,0,0,0,1.93-.73,2.26,2.26,0,0,0,.79-1.71,2.18,2.18,0,0,0-.52-1.44,8.81,8.81,0,0,0-2.38-1.56,7.69,7.69,0,0,1-2.7-2,3.86,3.86,0,0,1-.71-2.28,3.69,3.69,0,0,1,1.14-2.77,4,4,0,0,1,2.88-1.1A6,6,0,0,1,562,222.93Z"/></svg>